<?xml version="1.0" encoding="utf-8"?>
<!DOCTYPE svg PUBLIC "-//W3C//DTD SVG 20010904//EN"
 "http://www.w3.org/TR/2001/REC-SVG-20010904/DTD/svg10.dtd">
<svg version="1.0" xmlns="http://www.w3.org/2000/svg"
 width="850.000000pt" height="407.000000pt" viewBox="0 0 850.000000 407.000000"
 preserveAspectRatio="xMidYMid meet">

<g transform="translate(0.000000,407.000000) scale(0.100000,-0.100000)"
fill="#000000" stroke="none">
<path d="M4850 3690 c-9 -6 -10 -10 -3 -10 6 0 15 5 18 10 8 12 4 12 -15 0z"/>
<path d="M7372 3364 c-22 -15 -22 -15 -22 -353 0 -249 3 -340 12 -349 8 -8 57
-12 154 -12 116 0 145 3 158 16 14 13 16 59 16 345 0 404 16 369 -168 369 -99
0 -132 -3 -150 -16z m288 -354 l0 -260 -145 0 -145 0 0 260 0 260 145 0 145 0
0 -260z"/>
<path d="M366 3103 c-5 -11 1 -23 15 -34 23 -17 18 -42 -6 -32 -8 3 -15 0 -15
-7 0 -6 11 -10 27 -8 35 4 43 34 14 55 -20 13 -20 40 -1 28 5 -3 11 -1 15 5 4
6 -4 10 -18 10 -14 0 -28 -7 -31 -17z"/>
<path d="M665 3110 c-3 -5 -1 -10 4 -10 6 0 11 -18 11 -40 0 -22 5 -40 10 -40
6 0 10 23 10 50 0 37 -4 50 -14 50 -8 0 -18 -4 -21 -10z"/>
<path d="M1823 3103 c-4 -10 2 -23 16 -34 24 -19 21 -42 -4 -32 -8 3 -15 0
-15 -6 0 -6 11 -11 24 -11 33 0 43 30 17 52 -24 19 -28 43 -6 34 8 -3 15 -1
15 4 0 17 -40 11 -47 -7z"/>
<path d="M2114 3108 c-5 -8 -2 -9 10 -5 27 10 30 -19 6 -53 l-21 -30 33 1 c18
1 25 3 16 6 -15 4 -15 6 0 32 8 15 13 35 9 44 -7 19 -42 23 -53 5z"/>
<path d="M3359 3104 c-11 -14 -10 -18 10 -34 25 -18 21 -43 -4 -33 -8 3 -15 0
-15 -7 0 -6 11 -10 28 -8 35 4 43 41 12 58 -11 6 -18 15 -15 21 4 5 10 7 15 4
5 -3 11 -1 15 5 10 17 -31 11 -46 -6z"/>
<path d="M3650 3109 c0 -6 7 -9 15 -6 21 9 31 -14 11 -28 -15 -11 -15 -13 -1
-19 9 -3 13 -11 10 -17 -4 -6 -13 -8 -21 -5 -8 3 -14 1 -14 -4 0 -14 37 -12
46 2 9 14 12 58 6 76 -5 15 -52 16 -52 1z"/>
<path d="M4746 3103 c-7 -16 10 -37 37 -46 6 -2 7 -9 3 -15 -4 -7 -16 -10 -27
-7 -11 4 -19 2 -19 -4 0 -17 46 -13 61 5 12 14 10 19 -15 39 -18 14 -24 25
-17 29 6 4 16 4 21 1 6 -3 10 -1 10 4 0 18 -47 12 -54 -6z"/>
<path d="M5050 3080 c-20 -39 -20 -40 -1 -40 11 0 22 -6 24 -12 7 -18 29 12
22 30 -3 8 -5 25 -5 38 0 36 -17 29 -40 -16z"/>
<path d="M6133 3103 c-4 -10 2 -23 16 -34 24 -19 21 -42 -4 -32 -8 3 -15 0
-15 -6 0 -6 11 -11 24 -11 34 0 43 30 16 52 -20 16 -19 45 1 33 5 -4 9 -1 9 4
0 18 -40 12 -47 -6z"/>
<path d="M6430 3095 c0 -13 7 -28 16 -33 20 -11 10 -34 -11 -25 -8 3 -15 0
-15 -7 0 -6 11 -10 28 -8 35 4 45 46 13 55 -27 7 -27 21 2 33 21 8 21 9 -5 9
-23 1 -28 -3 -28 -24z"/>
<path d="M428 3098 c-9 -27 7 -73 27 -76 16 -3 18 -1 8 9 -16 16 -17 49 -2 49
6 0 4 7 -5 15 -18 18 -23 19 -28 3z"/>
<path d="M1888 3099 c-7 -21 4 -79 16 -79 9 0 12 30 7 83 -1 11 -19 8 -23 -4z"/>
<path d="M3428 3099 c-7 -21 4 -79 16 -79 9 0 12 26 7 78 -1 15 -18 16 -23 1z"/>
<path d="M4818 3099 c-7 -21 4 -79 16 -79 9 0 12 30 7 83 -1 11 -19 8 -23 -4z"/>
<path d="M6198 3098 c-2 -7 -2 -26 1 -43 6 -28 10 -30 54 -33 28 -1 47 2 47 8
0 6 -4 9 -8 6 -4 -2 -14 -1 -22 5 -11 6 -8 9 13 9 23 0 27 -4 27 -30 0 -16 5
-30 10 -30 6 0 10 6 10 14 0 8 10 16 21 18 31 4 46 32 30 52 -15 18 -71 22
-71 5 0 -8 -5 -8 -15 1 -8 7 -24 10 -35 7 -11 -3 -27 1 -34 9 -18 17 -23 18
-28 2z m42 -44 c0 -14 -4 -23 -10 -19 -5 3 -10 15 -10 26 0 10 5 19 10 19 6 0
10 -12 10 -26z m45 16 c3 -5 -1 -10 -9 -10 -9 0 -16 5 -16 10 0 6 4 10 9 10 6
0 13 -4 16 -10z m82 -6 c7 -18 -17 -38 -31 -24 -11 11 -1 40 14 40 6 0 13 -7
17 -16z"/>
<path d="M480 3069 c-14 -24 2 -49 31 -49 27 0 24 18 -3 23 -20 4 -19 4 5 6
29 1 34 10 15 29 -18 18 -36 15 -48 -9z m35 1 c3 -5 1 -10 -4 -10 -6 0 -11 5
-11 10 0 6 2 10 4 10 3 0 8 -4 11 -10z"/>
<path d="M550 3040 c0 -27 5 -50 10 -50 6 0 10 6 10 14 0 7 9 16 20 19 45 12
31 67 -16 67 -22 0 -24 -4 -24 -50z m50 14 c0 -8 -7 -14 -15 -14 -15 0 -21 21
-9 33 10 9 24 -2 24 -19z"/>
<path d="M1934 3076 c-12 -30 0 -51 31 -53 l30 -3 -25 12 -25 11 23 5 c15 2
22 9 20 20 -4 22 -46 28 -54 8z m36 -6 c0 -5 -4 -10 -10 -10 -5 0 -10 5 -10
10 0 6 5 10 10 10 6 0 10 -4 10 -10z"/>
<path d="M2000 3041 c0 -28 5 -51 10 -51 6 0 10 6 10 14 0 8 10 16 23 18 17 2
22 10 22 33 0 27 -4 30 -32 33 l-33 3 0 -50z m48 12 c-4 -22 -22 -20 -26 1 -2
10 3 16 13 16 10 0 15 -7 13 -17z"/>
<path d="M3472 3073 c-14 -26 3 -53 34 -53 15 0 23 4 19 11 -4 6 -13 8 -21 5
-7 -3 -16 -1 -19 4 -4 6 6 10 20 10 20 0 26 4 23 18 -5 24 -44 28 -56 5z m33
-3 c3 -5 -1 -10 -10 -10 -9 0 -13 5 -10 10 3 6 8 10 10 10 2 0 7 -4 10 -10z"/>
<path d="M3540 3041 c0 -28 5 -51 10 -51 6 0 10 6 10 14 0 8 10 16 23 18 17 2
22 10 22 33 0 27 -4 30 -32 33 l-33 3 0 -50z m46 3 c-5 -13 -10 -14 -18 -6 -6
6 -8 18 -4 28 5 13 10 14 18 6 6 -6 8 -18 4 -28z"/>
<path d="M4862 3073 c-14 -26 3 -53 34 -53 15 0 23 4 19 10 -4 6 -10 8 -14 6
-4 -3 -13 -1 -21 5 -11 6 -8 9 13 9 22 0 28 4 25 18 -5 24 -44 28 -56 5z m33
-3 c3 -5 1 -10 -4 -10 -6 0 -11 5 -11 10 0 6 2 10 4 10 3 0 8 -4 11 -10z"/>
<path d="M4930 3041 c0 -28 5 -51 10 -51 6 0 10 6 10 14 0 8 10 16 23 18 17 2
22 10 22 33 0 27 -4 30 -32 33 l-33 3 0 -50z m46 3 c-5 -13 -10 -14 -18 -6 -6
6 -8 18 -4 28 5 13 10 14 18 6 6 -6 8 -18 4 -28z"/>
<path d="M4404 3055 c-5 -13 -35 -15 -200 -15 -123 0 -194 -4 -194 -10 0 -6
72 -10 195 -10 123 0 195 -4 195 -10 0 -15 12 -12 38 8 l24 18 -26 18 c-23 15
-27 15 -32 1z"/>
<path d="M5798 3063 c-10 -2 -18 -9 -18 -14 0 -5 -78 -9 -185 -9 -117 0 -185
-4 -185 -10 0 -6 68 -10 185 -10 102 0 185 -4 185 -8 0 -4 -6 -14 -12 -21 -7
-7 4 -3 25 9 38 22 45 34 27 45 -6 4 -8 11 -5 16 4 5 5 8 3 8 -2 -1 -11 -3
-20 -6z"/>
<path d="M1530 3050 c0 -6 -86 -11 -237 -12 l-238 -3 229 -2 c128 -2 235 -8
241 -13 8 -6 17 -5 28 3 16 11 16 13 -3 25 -12 7 -20 8 -20 2z"/>
<path d="M2985 3050 c-4 -6 -94 -11 -233 -12 l-227 -1 230 -9 c135 -6 232 -14
236 -20 4 -6 14 -5 28 3 26 17 26 25 2 39 -24 12 -28 13 -36 0z"/>
<path d="M7220 3049 c0 -6 -41 -10 -112 -9 -256 3 -328 0 -328 -11 0 -8 59 -9
216 -4 169 6 218 5 224 -5 6 -10 12 -9 29 2 l21 15 -25 11 c-17 8 -25 8 -25 1z"/>
<path d="M7845 3039 c-55 -16 -55 -14 -55 -391 0 -331 1 -349 19 -367 29 -29
66 -33 303 -29 196 3 218 5 237 22 21 19 21 26 21 375 0 196 -4 362 -8 369 -5
7 -24 17 -43 22 -42 12 -433 12 -474 -1z m485 -394 l0 -285 -245 0 -245 0 0
285 0 285 245 0 245 0 0 -285z"/>
<path d="M277 2602 c-21 -23 -22 -46 -1 -66 17 -18 64 -22 64 -5 0 5 -3 8 -7
6 -16 -10 -53 13 -53 32 0 22 34 46 50 36 6 -3 10 -1 10 4 0 18 -46 12 -63 -7z"/>
<path d="M1825 2600 c-15 -16 -17 -26 -9 -48 18 -51 84 -37 84 17 0 50 -42 67
-75 31z m55 -32 c0 -25 -4 -29 -22 -26 -26 3 -35 32 -18 53 18 21 40 6 40 -27z"/>
<path d="M1910 2569 l0 -50 33 3 c28 3 32 6 32 33 0 23 -5 31 -22 33 -13 2
-23 10 -23 18 0 8 -4 14 -10 14 -5 0 -10 -23 -10 -51z m46 -25 c-5 -13 -10
-14 -18 -6 -6 6 -8 18 -4 28 5 13 10 14 18 6 6 -6 8 -18 4 -28z"/>
<path d="M2110 2610 c0 -5 5 -10 10 -10 6 0 10 5 10 10 0 6 -4 10 -10 10 -5 0
-10 -4 -10 -10z"/>
<path d="M3256 2598 c-20 -28 -20 -43 0 -62 17 -18 64 -22 64 -6 0 6 8 5 20
-2 16 -10 24 -10 40 0 12 7 20 8 20 2 0 -22 19 -9 22 15 2 14 8 26 13 26 6 0
11 -12 13 -26 4 -29 22 -34 22 -6 0 37 -12 51 -41 51 -16 0 -29 -5 -29 -10 0
-6 -7 -6 -19 1 -24 16 -49 5 -61 -26 -5 -14 -12 -25 -15 -25 -19 0 -45 23 -45
40 0 21 34 45 50 35 6 -3 10 -1 10 4 0 20 -49 11 -64 -11z m121 -34 c8 -20 -8
-36 -26 -25 -15 10 -8 41 9 41 6 0 13 -7 17 -16z"/>
<path d="M3493 2605 c-11 -18 -4 -85 7 -85 5 0 11 15 13 33 l4 32 1 -32 c3
-44 22 -42 22 2 0 26 -4 35 -17 36 -11 0 -13 3 -5 6 6 2 12 9 12 14 0 15 -28
10 -37 -6z"/>
<path d="M4629 2604 c-11 -14 -10 -18 10 -34 25 -18 21 -43 -4 -33 -8 3 -15 0
-15 -7 0 -6 11 -10 27 -8 37 4 43 35 12 59 -19 15 -21 19 -7 19 9 0 20 5 23
10 10 17 -32 11 -46 -6z"/>
<path d="M4860 2610 c0 -5 5 -10 10 -10 6 0 10 5 10 10 0 6 -4 10 -10 10 -5 0
-10 -4 -10 -10z"/>
<path d="M6119 2604 c-11 -14 -9 -19 14 -36 29 -21 27 -43 -4 -33 -11 4 -19 2
-19 -4 0 -17 46 -13 61 5 11 14 13 14 21 0 10 -17 48 -22 48 -6 0 5 -6 7 -14
4 -8 -3 -17 -1 -21 5 -4 7 4 11 20 11 29 0 30 17 1 34 -13 9 -20 7 -31 -7 -13
-18 -15 -18 -40 -1 -19 12 -23 19 -14 25 7 4 17 5 21 3 4 -3 8 0 8 5 0 17 -36
13 -51 -5z m106 -34 c3 -5 1 -10 -4 -10 -6 0 -11 5 -11 10 0 6 2 10 4 10 3 0
8 -4 11 -10z"/>
<path d="M6380 2606 c0 -8 -10 -16 -22 -18 -18 -2 -23 -10 -23 -33 0 -27 4
-30 33 -33 l32 -3 0 50 c0 28 -4 51 -10 51 -5 0 -10 -6 -10 -14z m-4 -62 c-5
-13 -10 -14 -18 -6 -6 6 -8 18 -4 28 5 13 10 14 18 6 6 -6 8 -18 4 -28z"/>
<path d="M528 2598 c-9 -26 7 -73 25 -76 16 -3 17 -1 5 17 -9 16 -10 23 -1 32
9 9 8 15 -2 25 -17 17 -22 17 -27 2z"/>
<path d="M1988 2598 c-2 -7 -2 -26 1 -43 6 -28 10 -30 54 -33 l48 -2 -3 32
c-2 25 -8 34 -25 36 -13 2 -23 -2 -23 -8 0 -6 4 -9 9 -5 5 3 12 1 16 -5 3 -5
0 -10 -8 -10 -8 0 -18 -7 -21 -16 -3 -8 -10 -12 -16 -9 -13 8 -13 45 1 45 6 0
4 7 -5 15 -18 18 -23 19 -28 3z"/>
<path d="M4767 2598 c-8 -23 5 -78 19 -78 10 0 12 8 8 30 -4 18 -2 30 4 30 6
0 12 -12 14 -27 2 -17 10 -29 21 -31 16 -3 17 -1 5 17 -9 16 -10 23 -1 32 9 9
8 15 -4 27 -13 13 -16 13 -25 1 -7 -11 -11 -11 -15 -1 -2 6 -8 12 -13 12 -4 0
-10 -6 -13 -12z"/>
<path d="M350 2554 c0 -19 5 -34 10 -34 6 0 10 11 10 25 0 31 17 33 22 3 2
-17 11 -24 31 -26 32 -4 37 15 5 21 -20 4 -19 4 5 6 58 3 21 39 -40 39 -42 1
-43 0 -43 -34z m85 16 c3 -5 -1 -10 -10 -10 -9 0 -13 5 -10 10 3 6 8 10 10 10
2 0 7 -4 10 -10z"/>
<path d="M470 2579 c0 -5 4 -8 9 -4 5 3 12 1 15 -4 3 -5 -3 -11 -14 -14 -33
-8 -25 -37 10 -37 31 0 38 17 24 54 -7 18 -44 22 -44 5z m30 -33 c0 -3 -4 -8
-10 -11 -5 -3 -10 -1 -10 4 0 6 5 11 10 11 6 0 10 -2 10 -4z"/>
<path d="M581 2572 c-12 -23 4 -52 29 -52 11 0 20 5 20 11 0 5 -4 8 -8 5 -4
-2 -14 -1 -22 5 -11 6 -8 9 13 9 29 0 34 9 15 28 -17 17 -36 15 -47 -6z m34
-2 c3 -5 -1 -10 -10 -10 -9 0 -13 5 -10 10 3 6 8 10 10 10 2 0 7 -4 10 -10z"/>
<path d="M680 2581 c0 -6 7 -8 15 -5 8 4 15 1 15 -5 0 -6 -6 -11 -14 -11 -15
0 -28 -24 -19 -34 4 -3 17 -6 30 -6 21 0 24 4 21 33 -2 24 -8 33 -25 35 -13 2
-23 -1 -23 -7z"/>
<path d="M740 2555 c0 -41 17 -47 22 -7 4 33 22 32 26 -3 4 -29 22 -34 22 -6
0 37 -12 51 -41 51 -26 0 -29 -3 -29 -35z"/>
<path d="M2110 2555 c0 -19 5 -35 10 -35 6 0 10 16 10 35 0 19 -4 35 -10 35
-5 0 -10 -16 -10 -35z"/>
<path d="M2140 2556 c0 -20 5 -36 10 -36 6 0 10 11 10 25 0 14 5 25 10 25 6 0
10 -11 10 -25 0 -14 5 -25 11 -25 6 0 9 14 7 33 -2 27 -8 33 -30 35 -26 3 -28
1 -28 -32z"/>
<path d="M3560 2571 c-13 -26 -3 -51 22 -51 10 0 17 -4 13 -10 -3 -5 -12 -7
-20 -3 -8 3 -15 0 -15 -7 0 -6 11 -10 28 -8 25 3 27 7 30 51 3 44 2 47 -22 47
-15 0 -30 -8 -36 -19z m40 -22 c0 -20 -15 -26 -25 -9 -9 15 3 43 15 35 5 -3
10 -15 10 -26z"/>
<path d="M3630 2571 c0 -37 12 -51 41 -51 26 0 29 3 29 35 0 41 -17 47 -22 8
-4 -34 -22 -33 -26 2 -4 29 -22 34 -22 6z"/>
<path d="M3710 2555 c0 -19 5 -35 10 -35 6 0 10 11 10 25 0 14 5 25 10 25 6 0
10 5 10 10 0 6 -9 10 -20 10 -16 0 -20 -7 -20 -35z"/>
<path d="M3761 2572 c-12 -23 4 -52 29 -52 27 0 25 18 -2 23 -20 4 -19 4 5 6
29 1 34 10 15 29 -17 17 -36 15 -47 -6z m34 -2 c3 -5 -1 -10 -10 -10 -9 0 -13
5 -10 10 3 6 8 10 10 10 2 0 7 -4 10 -10z"/>
<path d="M4694 2576 c-11 -29 1 -51 29 -54 16 -2 27 2 27 8 0 7 -7 10 -15 7
-8 -4 -17 -2 -20 3 -4 6 5 10 19 10 28 0 33 9 14 28 -16 16 -47 15 -54 -2z
m41 -6 c3 -5 -1 -10 -10 -10 -9 0 -13 5 -10 10 3 6 8 10 10 10 2 0 7 -4 10
-10z"/>
<path d="M4860 2555 c0 -19 5 -35 10 -35 6 0 10 16 10 35 0 19 -4 35 -10 35
-5 0 -10 -16 -10 -35z"/>
<path d="M4890 2556 c0 -20 5 -36 10 -36 6 0 10 11 10 25 0 14 5 25 10 25 6 0
10 -11 10 -25 0 -14 5 -25 11 -25 6 0 9 14 7 33 -2 27 -8 33 -30 35 -26 3 -28
1 -28 -32z"/>
<path d="M4970 2575 c-21 -25 0 -62 33 -56 5 1 6 -3 2 -8 -3 -6 -12 -8 -20 -4
-8 3 -15 0 -15 -7 0 -6 11 -10 28 -8 25 3 27 7 30 51 3 44 2 47 -21 47 -14 0
-30 -7 -37 -15z m40 -26 c0 -24 -23 -21 -28 4 -2 10 3 17 12 17 10 0 16 -9 16
-21z"/>
<path d="M5070 2571 c0 -37 12 -51 41 -51 26 0 29 3 29 35 0 19 -4 35 -10 35
-5 0 -10 -11 -10 -25 0 -16 -6 -25 -15 -25 -9 0 -15 9 -15 25 0 14 -4 25 -10
25 -5 0 -10 -9 -10 -19z"/>
<path d="M5150 2541 c0 -28 5 -51 10 -51 6 0 10 6 10 14 0 8 10 16 23 18 17 2
22 10 22 33 0 27 -4 30 -32 33 l-33 3 0 -50z m48 12 c-4 -22 -22 -20 -26 1 -2
10 3 16 13 16 10 0 15 -7 13 -17z"/>
<path d="M6260 2556 c0 -20 5 -36 10 -36 6 0 10 11 10 25 0 14 5 25 10 25 6 0
10 -11 10 -25 0 -14 5 -25 11 -25 6 0 9 14 7 33 -2 27 -8 33 -30 35 -26 3 -28
1 -28 -32z"/>
<path d="M6450 2579 c0 -5 4 -8 9 -4 5 3 12 1 15 -4 3 -5 -3 -11 -14 -14 -33
-8 -25 -37 10 -37 31 0 38 17 24 54 -7 18 -44 22 -44 5z"/>
<path d="M250 2400 c0 -27 5 -50 10 -50 6 0 10 23 10 50 0 28 -4 50 -10 50 -5
0 -10 -22 -10 -50z"/>
<path d="M280 2401 c0 -47 2 -51 24 -51 25 0 51 22 39 34 -4 4 -7 19 -8 34 0
22 -5 28 -27 30 -27 3 -28 2 -28 -47z m40 18 c0 -5 -4 -9 -10 -9 -5 0 -10 7
-10 16 0 8 5 12 10 9 6 -3 10 -10 10 -16z m5 -39 c3 -5 -1 -10 -9 -10 -9 0
-16 5 -16 10 0 6 4 10 9 10 6 0 13 -4 16 -10z"/>
<path d="M360 2400 c0 -51 19 -72 21 -22 l1 27 10 -27 c5 -16 13 -28 17 -28 4
0 12 12 18 28 l11 27 1 -27 c2 -50 21 -29 21 22 0 37 -4 50 -15 50 -8 0 -17
-11 -21 -25 -3 -14 -10 -25 -14 -25 -4 0 -11 11 -14 25 -4 14 -13 25 -21 25
-11 0 -15 -13 -15 -50z"/>
<path d="M506 2428 c-20 -28 -20 -43 0 -62 17 -18 64 -22 64 -5 0 5 -3 8 -7 6
-17 -10 -53 13 -53 33 0 20 36 43 53 33 4 -2 7 1 7 6 0 20 -49 11 -64 -11z"/>
<path d="M580 2400 c0 -27 5 -50 10 -50 6 0 10 23 10 50 0 28 -4 50 -10 50 -5
0 -10 -22 -10 -50z"/>
<path d="M810 2436 c0 -7 -9 -16 -20 -19 -45 -12 -31 -67 16 -67 22 0 24 4 24
50 0 28 -4 50 -10 50 -5 0 -10 -6 -10 -14z m0 -52 c0 -8 -7 -14 -15 -14 -15 0
-21 21 -9 33 10 9 24 -2 24 -19z"/>
<path d="M1920 2435 c0 -8 -9 -15 -19 -15 -11 0 -23 -5 -26 -10 -4 -7 -11 -8
-18 -2 -7 6 -31 10 -54 10 -42 1 -43 0 -43 -34 0 -19 5 -34 10 -34 6 0 10 11
10 24 0 35 18 42 22 9 2 -22 9 -29 31 -31 15 -2 27 1 27 7 0 6 -6 8 -14 5 -8
-3 -17 -1 -21 5 -4 7 3 11 18 11 14 0 27 -7 31 -15 3 -9 18 -15 36 -15 29 0
30 1 30 50 0 28 -4 50 -10 50 -5 0 -10 -7 -10 -15z m-75 -35 c3 -5 -1 -10 -9
-10 -9 0 -16 5 -16 10 0 6 4 10 9 10 6 0 13 -4 16 -10z m71 -26 c-5 -13 -10
-14 -18 -6 -6 6 -8 18 -4 28 5 13 10 14 18 6 6 -6 8 -18 4 -28z"/>
<path d="M2150 2440 c0 -5 5 -10 10 -10 6 0 10 5 10 10 0 6 -4 10 -10 10 -5 0
-10 -4 -10 -10z"/>
<path d="M2250 2400 c0 -27 5 -50 10 -50 6 0 10 23 10 50 0 28 -4 50 -10 50
-5 0 -10 -22 -10 -50z"/>
<path d="M3270 2400 c0 -27 5 -50 10 -50 6 0 10 11 10 25 0 14 5 25 10 25 6 0
10 -11 10 -25 0 -14 5 -25 10 -25 6 0 10 14 10 31 0 22 -5 32 -20 36 -11 3
-20 12 -20 19 0 8 -4 14 -10 14 -5 0 -10 -22 -10 -50z"/>
<path d="M3690 2440 c0 -5 5 -10 10 -10 6 0 10 5 10 10 0 6 -4 10 -10 10 -5 0
-10 -4 -10 -10z"/>
<path d="M5000 2400 c0 -27 5 -50 10 -50 6 0 10 11 10 25 0 14 5 25 10 25 6 0
10 -11 10 -25 0 -14 5 -25 10 -25 6 0 10 14 10 31 0 22 -5 32 -20 36 -11 3
-20 12 -20 19 0 8 -4 14 -10 14 -5 0 -10 -22 -10 -50z"/>
<path d="M6180 2440 c0 -5 5 -10 10 -10 6 0 10 5 10 10 0 6 -4 10 -10 10 -5 0
-10 -4 -10 -10z"/>
<path d="M6216 2435 c-3 -8 -12 -15 -21 -15 -11 0 -15 -10 -15 -35 0 -44 17
-46 23 -2 l4 32 1 -32 c2 -42 22 -43 22 -2 0 17 4 28 10 24 6 -3 10 -17 10
-31 0 -13 5 -24 10 -24 6 0 10 16 10 35 0 29 -4 35 -21 35 -11 0 -17 5 -14 10
4 6 11 8 16 5 5 -4 9 -1 9 4 0 17 -37 13 -44 -4z"/>
<path d="M6460 2440 c0 -5 5 -10 10 -10 6 0 10 5 10 10 0 6 -4 10 -10 10 -5 0
-10 -4 -10 -10z"/>
<path d="M2098 2428 c-9 -26 7 -73 25 -76 16 -3 17 -1 5 17 -9 16 -10 23 -1
32 9 9 8 15 -2 25 -17 17 -22 17 -27 2z"/>
<path d="M3218 2428 c-9 -26 7 -73 25 -76 16 -3 17 -1 5 17 -9 16 -10 23 -1
32 9 9 8 15 -2 25 -17 17 -22 17 -27 2z"/>
<path d="M6128 2428 c-9 -26 7 -73 25 -76 16 -3 17 -1 5 17 -9 16 -10 23 -1
32 9 9 8 15 -2 25 -17 17 -22 17 -27 2z"/>
<path d="M6417 2428 c-8 -22 5 -78 18 -78 8 0 11 9 8 24 -3 13 0 27 6 30 7 5
11 -4 11 -23 0 -17 5 -31 10 -31 6 0 10 16 10 35 0 28 -4 35 -20 35 -11 0 -20
5 -20 10 0 14 -17 12 -23 -2z"/>
<path d="M614 2406 c-12 -31 0 -51 31 -51 27 0 30 3 30 30 0 25 -4 30 -28 33
-17 2 -29 -2 -33 -12z m44 -23 c-4 -22 -22 -20 -26 1 -2 10 3 16 13 16 10 0
15 -7 13 -17z"/>
<path d="M692 2388 c2 -28 8 -34 31 -36 25 -3 27 -1 27 32 0 20 -4 36 -10 36
-5 0 -10 -11 -10 -25 0 -14 -4 -25 -10 -25 -5 0 -10 11 -10 25 0 14 -5 25 -11
25 -6 0 -9 -14 -7 -32z"/>
<path d="M1700 2399 c-9 -15 -8 -24 1 -35 13 -16 49 -19 49 -4 0 6 -3 9 -7 9
-21 -3 -33 2 -33 16 0 8 9 15 20 15 11 0 20 5 20 10 0 18 -39 10 -50 -11z"/>
<path d="M1954 2406 c-11 -29 1 -51 29 -54 16 -2 27 2 27 8 0 7 -7 10 -15 7
-8 -4 -17 -2 -20 3 -4 6 5 10 19 10 16 0 26 -6 26 -15 0 -8 5 -15 10 -15 6 0
10 11 10 25 0 16 6 25 15 25 9 0 15 -9 15 -25 0 -14 5 -25 10 -25 11 0 13 30
4 54 -7 19 -64 22 -64 4 0 -9 -3 -9 -12 0 -16 16 -47 15 -54 -2z m41 -6 c3 -5
-1 -10 -9 -10 -9 0 -16 5 -16 10 0 6 4 10 9 10 6 0 13 -4 16 -10z"/>
<path d="M2150 2387 c0 -32 2 -34 41 -35 40 -2 40 -1 37 31 -2 24 -8 33 -25
35 -13 2 -23 -2 -23 -8 0 -7 7 -10 15 -6 8 3 15 1 15 -4 0 -6 -6 -10 -14 -10
-8 0 -17 -6 -19 -12 -3 -7 -6 -1 -6 15 -1 39 -21 34 -21 -6z"/>
<path d="M2285 2410 c-4 -6 -1 -17 5 -25 9 -11 9 -15 1 -15 -6 0 -11 -4 -11
-10 0 -14 37 -13 46 2 4 6 0 16 -9 23 -18 13 -24 30 -7 20 6 -3 10 -1 10 4 0
14 -27 14 -35 1z"/>
<path d="M3350 2399 c-9 -15 -8 -24 1 -35 13 -16 49 -19 49 -4 0 5 -6 7 -14 4
-8 -3 -17 -1 -21 5 -4 7 4 11 20 11 21 0 26 4 21 16 -3 9 -6 18 -6 20 0 14
-41 0 -50 -17z m35 1 c3 -5 -1 -10 -10 -10 -9 0 -13 5 -10 10 3 6 8 10 10 10
2 0 7 -4 10 -10z"/>
<path d="M3450 2400 c0 -11 5 -20 10 -20 6 0 10 -5 10 -11 0 -5 -4 -8 -9 -4
-5 3 -12 1 -16 -5 -3 -5 3 -10 15 -10 25 0 38 29 19 41 -10 6 -10 9 -1 9 6 0
12 5 12 10 0 6 -9 10 -20 10 -13 0 -20 -7 -20 -20z"/>
<path d="M3504 2406 c-12 -30 0 -51 31 -53 l30 -3 -25 12 -25 11 23 5 c15 2
22 9 20 20 -4 22 -46 28 -54 8z m36 -6 c0 -5 -5 -10 -11 -10 -5 0 -7 5 -4 10
3 6 8 10 11 10 2 0 4 -4 4 -10z"/>
<path d="M3570 2385 c0 -19 5 -35 10 -35 6 0 10 11 10 24 0 35 23 38 37 4 14
-32 28 -36 36 -10 2 9 8 25 12 35 4 10 3 17 -3 17 -6 0 -14 -10 -18 -22 l-7
-23 -8 23 c-6 16 -16 22 -39 22 -28 0 -30 -3 -30 -35z"/>
<path d="M3690 2385 c0 -19 5 -35 10 -35 6 0 10 16 10 35 0 19 -4 35 -10 35
-5 0 -10 -16 -10 -35z"/>
<path d="M3724 2406 c-15 -39 -1 -51 61 -53 56 -2 59 -1 35 12 l-25 14 23 1
c17 0 23 5 20 18 -4 23 -106 30 -114 8z m56 -21 c0 -27 -6 -30 -29 -16 -17 11
-7 41 14 41 9 0 15 -9 15 -25z m40 15 c0 -5 -4 -10 -10 -10 -5 0 -10 5 -10 10
0 6 5 10 10 10 6 0 10 -4 10 -10z"/>
<path d="M4780 2370 c0 -27 5 -50 10 -50 6 0 10 7 10 15 0 8 8 15 18 15 10 0
23 5 29 11 8 8 13 8 17 0 4 -6 20 -11 37 -11 27 0 29 3 29 35 0 40 -17 48 -22
10 -4 -35 -22 -36 -26 -2 -3 26 -22 39 -22 15 0 -9 -3 -9 -12 0 -7 7 -25 12
-40 12 -27 0 -28 -2 -28 -50z m58 17 c2 -12 -3 -17 -17 -17 -12 0 -21 6 -21
13 0 31 32 34 38 4z"/>
<path d="M4940 2405 c0 -9 7 -18 15 -21 8 -4 12 -10 9 -15 -3 -5 -10 -7 -15
-4 -5 4 -9 1 -9 -4 0 -15 37 -14 46 1 4 6 0 16 -9 23 -18 13 -24 30 -7 20 6
-3 10 -1 10 4 0 6 -9 11 -20 11 -11 0 -20 -7 -20 -15z"/>
<path d="M5980 2386 c0 -20 5 -36 10 -36 6 0 10 11 10 25 0 14 5 25 10 25 6 0
10 -11 10 -25 0 -14 5 -25 11 -25 6 0 9 14 7 33 -2 27 -8 33 -30 35 -26 3 -28
1 -28 -32z"/>
<path d="M6054 2406 c-12 -31 0 -51 31 -51 27 0 30 3 30 30 0 25 -4 30 -28 33
-17 2 -29 -2 -33 -12z m46 -22 c0 -8 -7 -14 -15 -14 -15 0 -21 21 -9 33 10 9
24 -2 24 -19z"/>
<path d="M6284 2406 c-15 -38 0 -51 59 -53 l58 -3 -3 33 c-2 24 -8 33 -25 35
-13 2 -23 -2 -23 -8 0 -7 7 -10 15 -6 8 3 15 1 15 -4 0 -6 -6 -10 -14 -10 -8
0 -16 -6 -19 -14 -7 -18 -41 -14 -45 6 -2 8 7 20 20 26 23 11 23 11 -5 11 -15
1 -30 -5 -33 -13z"/>
<path d="M6494 2406 c-12 -31 0 -51 31 -51 27 0 30 3 30 30 0 25 -4 30 -28 33
-17 2 -29 -2 -33 -12z m42 -32 c-5 -13 -10 -14 -18 -6 -6 6 -8 18 -4 28 5 13
10 14 18 6 6 -6 8 -18 4 -28z"/>
<path d="M6570 2386 c0 -20 5 -36 10 -36 6 0 10 11 10 25 0 14 5 25 10 25 6 0
10 -11 10 -25 0 -14 5 -25 11 -25 6 0 9 14 7 33 -2 27 -8 33 -30 35 -26 3 -28
1 -28 -32z"/>
<path d="M580 2270 c0 -5 5 -10 10 -10 6 0 10 5 10 10 0 6 -4 10 -10 10 -5 0
-10 -4 -10 -10z"/>
<path d="M1883 2265 c-11 -19 -4 -85 8 -85 8 0 14 49 10 74 -1 5 4 13 11 17
10 7 9 9 -4 9 -9 0 -21 -7 -25 -15z"/>
<path d="M3290 2270 c0 -5 5 -10 10 -10 6 0 10 5 10 10 0 6 -4 10 -10 10 -5 0
-10 -4 -10 -10z"/>
<path d="M4790 2270 c0 -5 5 -10 10 -10 6 0 10 5 10 10 0 6 -4 10 -10 10 -5 0
-10 -4 -10 -10z"/>
<path d="M5050 2230 c0 -27 5 -50 10 -50 6 0 10 23 10 50 0 28 -4 50 -10 50
-5 0 -10 -22 -10 -50z"/>
<path d="M5080 2270 c0 -5 5 -10 10 -10 6 0 10 5 10 10 0 6 -4 10 -10 10 -5 0
-10 -4 -10 -10z"/>
<path d="M3460 2260 c0 -5 -11 -10 -25 -10 -18 0 -25 -5 -25 -20 0 -11 5 -20
10 -20 6 0 10 -5 10 -11 0 -5 -4 -8 -9 -4 -5 3 -12 1 -16 -5 -3 -5 3 -10 15
-10 23 0 41 31 22 38 -17 5 -15 22 2 22 9 0 16 -12 18 -27 3 -26 7 -28 51 -31
41 -3 47 -1 47 17 0 33 -11 51 -31 51 -24 0 -25 -20 -1 -21 13 0 12 -2 -5 -9
-13 -5 -23 -14 -23 -20 0 -6 -4 -8 -10 -5 -13 8 -13 45 1 45 6 0 4 7 -5 15
-17 17 -26 19 -26 5z m80 -54 c0 -3 -4 -8 -10 -11 -5 -3 -10 -1 -10 4 0 6 5
11 10 11 6 0 10 -2 10 -4z"/>
<path d="M5258 2258 c-9 -27 7 -73 27 -76 16 -3 18 -1 8 9 -16 16 -17 49 -2
49 6 0 4 7 -5 15 -18 18 -23 19 -28 3z"/>
<path d="M344 2238 c-4 -6 1 -17 11 -25 17 -12 14 -18 -7 -14 -5 0 -8 -3 -8
-9 0 -13 33 -13 47 1 8 8 13 8 17 0 9 -14 46 -14 46 0 0 6 -7 9 -15 6 -8 -4
-17 -2 -20 3 -4 6 6 10 20 10 20 0 26 4 23 18 -5 25 -44 27 -57 3 -11 -20 -41
-19 -41 1 0 5 5 6 10 3 6 -3 10 -1 10 4 0 15 -27 14 -36 -1z m96 -8 c0 -5 -7
-10 -16 -10 -8 0 -12 5 -9 10 3 6 10 10 16 10 5 0 9 -4 9 -10z"/>
<path d="M470 2215 c0 -19 5 -35 10 -35 6 0 10 11 10 24 0 38 19 41 31 7 14
-40 25 -39 43 2 l14 32 1 -32 c1 -45 21 -42 21 2 0 29 -4 35 -20 35 -12 0 -24
-9 -29 -22 l-8 -23 -7 23 c-5 16 -15 22 -37 22 -27 0 -29 -3 -29 -35z"/>
<path d="M619 2234 c-9 -11 -10 -20 -2 -32 12 -21 53 -29 53 -11 0 10 3 10 12
1 14 -14 62 -16 53 -2 -3 5 -12 7 -19 4 -8 -3 -17 -1 -21 5 -4 7 4 11 20 11
20 0 26 4 23 18 -2 9 -13 18 -25 20 -16 2 -26 -5 -38 -27 -10 -20 -20 -28 -30
-25 -29 12 -15 40 18 35 4 0 7 4 7 9 0 16 -36 12 -51 -6z m96 -4 c3 -5 -1 -10
-10 -10 -9 0 -13 5 -10 10 3 6 8 10 10 10 2 0 7 -4 10 -10z"/>
<path d="M1920 2215 c0 -19 5 -35 10 -35 6 0 10 11 10 24 0 35 18 42 22 9 3
-24 8 -28 33 -28 27 0 30 3 30 30 0 29 -1 30 -52 32 l-53 2 0 -34z m88 -2 c-4
-22 -22 -20 -26 1 -2 10 3 16 13 16 10 0 15 -7 13 -17z"/>
<path d="M2040 2215 c0 -19 5 -35 10 -35 6 0 10 11 10 24 0 14 5 28 10 31 6 4
10 -7 10 -24 0 -17 5 -31 10 -31 6 0 10 11 10 24 0 14 5 28 10 31 6 4 10 -7
10 -24 0 -17 5 -31 11 -31 6 0 9 14 7 33 -3 31 -5 32 -50 35 l-48 2 0 -35z"/>
<path d="M3290 2215 c0 -19 5 -35 10 -35 6 0 10 16 10 35 0 19 -4 35 -10 35
-5 0 -10 -16 -10 -35z"/>
<path d="M3330 2216 c0 -20 5 -36 10 -36 6 0 10 11 10 25 0 14 5 25 10 25 6 0
10 -11 10 -25 0 -14 5 -25 11 -25 6 0 9 14 7 33 -2 27 -8 33 -30 35 -26 3 -28
1 -28 -32z"/>
<path d="M3570 2215 c0 -19 5 -35 10 -35 6 0 10 11 10 25 0 16 6 25 15 25 9 0
15 -9 15 -25 0 -14 5 -25 10 -25 6 0 10 5 10 12 0 9 3 9 12 0 15 -15 48 -16
48 -2 0 6 -9 10 -20 10 -11 0 -20 7 -20 15 0 14 12 19 33 16 4 0 7 4 7 9 0 14
-33 12 -49 -2 -11 -10 -14 -10 -18 0 -3 6 -18 12 -34 12 -26 0 -29 -3 -29 -35z"/>
<path d="M3714 2236 c-11 -29 1 -51 30 -54 18 -2 26 0 21 7 -3 6 -10 9 -15 6
-5 -3 -11 -1 -15 5 -3 6 3 10 15 10 15 0 20 5 18 18 -4 22 -46 29 -54 8z m36
-6 c0 -5 -5 -10 -11 -10 -5 0 -7 5 -4 10 3 6 8 10 11 10 2 0 4 -4 4 -10z"/>
<path d="M4550 2235 c0 -9 7 -18 15 -21 8 -4 12 -10 9 -15 -3 -5 -10 -7 -15
-4 -5 4 -9 2 -9 -3 0 -5 25 -10 55 -10 30 0 55 4 55 9 0 6 -4 8 -8 5 -4 -2
-14 -1 -22 5 -11 6 -8 9 13 9 17 0 27 -5 27 -15 0 -8 5 -15 10 -15 6 0 10 11
10 25 0 14 5 25 10 25 6 0 10 5 10 10 0 6 -9 10 -20 10 -11 0 -20 -5 -20 -12
0 -9 -3 -9 -12 0 -18 18 -49 14 -55 -7 -5 -19 -33 -19 -33 1 0 5 5 6 10 3 6
-3 10 -1 10 4 0 6 -9 11 -20 11 -11 0 -20 -7 -20 -15z m95 -5 c3 -5 -1 -10 -9
-10 -9 0 -16 5 -16 10 0 6 4 10 9 10 6 0 13 -4 16 -10z"/>
<path d="M4720 2246 c0 -15 24 -66 31 -66 5 0 15 15 23 33 l14 32 1 -32 c1
-45 21 -42 21 2 0 29 -4 35 -20 35 -12 0 -24 -9 -29 -22 l-8 -23 -7 23 c-6 18
-26 32 -26 18z"/>
<path d="M4824 2236 c-11 -30 1 -51 31 -54 17 -2 26 0 22 5 -5 4 -14 8 -20 8
-7 0 -12 9 -12 20 0 11 5 20 12 20 6 0 15 3 19 8 4 4 -5 7 -20 7 -14 0 -29 -6
-32 -14z"/>
<path d="M4891 2232 c-12 -23 4 -52 29 -52 11 0 20 4 20 10 0 5 -6 7 -14 4 -8
-3 -17 -1 -21 5 -4 7 4 11 19 11 28 0 33 9 14 28 -17 17 -36 15 -47 -6z m34
-2 c3 -5 -1 -10 -10 -10 -9 0 -13 5 -10 10 3 6 8 10 10 10 2 0 7 -4 10 -10z"/>
<path d="M4990 2229 c-9 -15 -8 -24 1 -35 13 -16 49 -19 49 -4 0 6 -3 9 -7 9
-21 -3 -33 2 -33 16 0 14 12 19 33 16 4 0 7 4 7 9 0 18 -39 10 -50 -11z"/>
<path d="M5080 2215 c0 -19 5 -35 10 -35 6 0 10 16 10 35 0 19 -4 35 -10 35
-5 0 -10 -16 -10 -35z"/>
<path d="M5114 2236 c-11 -29 1 -51 29 -54 16 -2 27 2 27 8 0 7 -7 10 -15 7
-8 -4 -17 -2 -20 3 -4 6 5 10 19 10 16 0 26 -6 26 -15 0 -25 18 -17 22 10 2
14 8 26 13 26 6 0 11 -12 13 -26 4 -29 22 -34 22 -6 0 37 -12 51 -41 51 -16 0
-29 -5 -29 -12 0 -9 -3 -9 -12 0 -16 16 -47 15 -54 -2z m41 -6 c3 -5 -1 -10
-9 -10 -9 0 -16 5 -16 10 0 6 4 10 9 10 6 0 13 -4 16 -10z"/>
<path d="M300 2110 c0 -5 5 -10 10 -10 6 0 10 5 10 10 0 6 -4 10 -10 10 -5 0
-10 -4 -10 -10z"/>
<path d="M1860 2095 c-27 -70 -24 -90 8 -59 14 15 17 15 27 0 15 -20 45 -21
45 -1 0 9 12 20 26 25 39 15 30 54 -13 58 -33 3 -33 3 -33 -40 l-1 -43 -14 40
c-8 22 -15 41 -15 43 0 1 -5 2 -10 2 -6 0 -15 -11 -20 -25z m105 -5 c0 -7 -6
-15 -12 -17 -8 -3 -13 4 -13 17 0 13 5 20 13 18 6 -3 12 -11 12 -18z m-80 -20
c3 -5 1 -10 -4 -10 -6 0 -11 5 -11 10 0 6 2 10 4 10 3 0 8 -4 11 -10z"/>
<path d="M2000 2070 c0 -53 16 -69 22 -22 l4 27 14 -27 c22 -45 40 -35 40 22
0 55 -17 69 -22 18 l-3 -33 -18 33 c-25 46 -37 40 -37 -18z"/>
<path d="M2093 2103 c-4 -10 2 -23 16 -34 24 -19 21 -42 -4 -32 -8 3 -15 0
-15 -7 0 -6 11 -10 28 -8 35 4 45 46 12 55 -21 6 -23 28 -2 28 5 0 14 3 18 8
4 4 -5 7 -20 7 -16 0 -29 -7 -33 -17z"/>
<path d="M4783 2103 c-4 -10 2 -23 16 -34 24 -19 21 -42 -4 -32 -8 3 -15 0
-15 -7 0 -6 11 -10 28 -8 35 4 45 46 12 55 -21 6 -23 28 -2 28 5 0 14 3 18 8
4 4 -5 7 -20 7 -16 0 -29 -7 -33 -17z"/>
<path d="M4850 2070 c0 -48 1 -50 27 -50 14 0 35 7 45 17 17 15 18 15 18 0 0
-10 5 -17 10 -17 6 0 10 10 10 23 l1 22 20 -24 c24 -29 37 -21 15 10 -14 21
-14 25 -1 46 18 27 9 30 -17 6 -17 -15 -18 -15 -18 0 0 10 -4 17 -10 17 -5 0
-10 -7 -10 -16 0 -14 -1 -14 -16 0 -8 9 -29 16 -45 16 -28 0 -29 -1 -29 -50z
m68 8 c4 -19 -26 -51 -39 -43 -5 4 -9 22 -9 40 0 31 2 34 23 26 12 -5 23 -15
25 -23z"/>
<path d="M7376 2098 c-9 -36 -7 -78 4 -78 6 0 10 15 11 33 l1 32 10 -32 c6
-18 14 -33 18 -33 4 0 12 15 18 33 l10 32 1 -32 c1 -18 6 -33 12 -33 14 0 7
92 -8 97 -6 2 -14 -10 -18 -26 -8 -39 -22 -40 -30 -1 -8 36 -20 39 -29 8z"/>
<path d="M7565 2108 c-4 -10 -5 -25 -1 -33 3 -8 1 -15 -3 -15 -5 0 -12 7 -15
16 -3 9 -15 14 -28 12 -18 -2 -23 -9 -23 -33 0 -36 31 -47 52 -19 12 16 13 16
13 1 0 -12 8 -17 30 -17 23 0 31 5 36 24 7 31 -1 46 -26 46 -10 0 -20 8 -23
18 -4 16 -4 16 -12 0z m-28 -44 c8 -21 -13 -42 -28 -27 -13 13 -5 43 11 43 6
0 13 -7 17 -16z m69 -20 c-5 -13 -10 -14 -18 -6 -6 6 -8 18 -4 28 5 13 10 14
18 6 6 -6 8 -18 4 -28z"/>
<path d="M7645 2110 c3 -5 8 -10 11 -10 2 0 4 5 4 10 0 6 -5 10 -11 10 -5 0
-7 -4 -4 -10z"/>
<path d="M7672 2070 c-1 -27 3 -50 9 -50 5 0 9 23 9 50 0 28 -4 50 -9 50 -5 0
-9 -22 -9 -50z"/>
<path d="M7860 2105 c0 -8 -9 -15 -20 -15 -10 0 -24 -8 -29 -18 -14 -27 5 -52
39 -52 29 0 30 1 30 50 0 28 -4 50 -10 50 -5 0 -10 -7 -10 -15z m-3 -41 c8
-21 -13 -42 -28 -27 -13 13 -5 43 11 43 6 0 13 -7 17 -16z"/>
<path d="M8025 2110 c3 -5 8 -10 11 -10 2 0 4 5 4 10 0 6 -5 10 -11 10 -5 0
-7 -4 -4 -10z"/>
<path d="M467 2098 c-7 -21 4 -78 17 -78 9 0 12 26 7 78 0 6 -5 12 -10 12 -5
0 -11 -6 -14 -12z"/>
<path d="M300 2055 c0 -19 5 -35 10 -35 6 0 10 16 10 35 0 19 -4 35 -10 35 -5
0 -10 -16 -10 -35z"/>
<path d="M330 2055 c0 -41 17 -47 22 -7 4 33 22 32 26 -3 4 -29 22 -34 22 -6
0 37 -12 51 -41 51 -26 0 -29 -3 -29 -35z"/>
<path d="M410 2076 c0 -8 5 -18 10 -21 6 -3 10 -11 10 -16 0 -6 -4 -7 -10 -4
-5 3 -10 1 -10 -4 0 -15 37 -14 46 1 4 6 -1 17 -11 25 -11 7 -13 13 -7 13 7 0
12 5 12 10 0 6 -9 10 -20 10 -11 0 -20 -6 -20 -14z"/>
<path d="M520 2080 c0 -5 8 -10 18 -11 13 0 12 -2 -5 -9 -34 -14 -29 -40 7
-40 31 0 38 17 24 54 -7 17 -44 22 -44 6z m30 -34 c0 -3 -4 -8 -10 -11 -5 -3
-10 -1 -10 4 0 6 5 11 10 11 6 0 10 -2 10 -4z"/>
<path d="M580 2055 c0 -41 17 -47 22 -7 4 33 22 32 26 -3 3 -25 22 -36 22 -13
0 9 3 9 12 0 15 -15 48 -16 48 -2 0 6 -3 9 -7 9 -21 -3 -33 2 -33 16 0 14 12
19 33 16 4 0 7 4 7 9 0 14 -33 12 -49 -2 -11 -10 -14 -10 -18 0 -3 6 -18 12
-34 12 -26 0 -29 -3 -29 -35z"/>
<path d="M724 2076 c-11 -28 1 -51 26 -54 24 -2 24 -2 6 13 -19 15 -19 15 3
15 16 0 22 5 19 18 -4 22 -46 29 -54 8z m36 -6 c0 -5 -4 -10 -10 -10 -5 0 -10
5 -10 10 0 6 5 10 10 10 6 0 10 -4 10 -10z"/>
<path d="M5024 2079 c-3 -6 -1 -16 5 -22 14 -14 15 -30 1 -22 -5 3 -10 1 -10
-4 0 -15 37 -14 46 1 4 6 0 16 -9 23 -18 13 -24 30 -7 20 6 -3 10 -1 10 4 0
14 -27 14 -36 0z"/>
<path d="M7640 2055 c0 -19 5 -35 10 -35 6 0 10 16 10 35 0 19 -4 35 -10 35
-5 0 -10 -16 -10 -35z"/>
<path d="M7714 2076 c-11 -28 1 -51 26 -53 l25 -3 -25 12 -25 12 28 4 c20 2
27 8 25 20 -4 22 -46 28 -54 8z m36 -6 c0 -5 -7 -10 -16 -10 -8 0 -12 5 -9 10
3 6 10 10 16 10 5 0 9 -4 9 -10z"/>
<path d="M7894 2076 c-11 -28 1 -51 26 -53 l25 -3 -25 12 -25 12 27 4 c24 3
27 6 18 23 -13 22 -38 25 -46 5z m31 -6 c3 -5 -1 -10 -10 -10 -9 0 -13 5 -10
10 3 6 8 10 10 10 2 0 7 -4 10 -10z"/>
<path d="M7955 2073 c4 -10 10 -26 12 -36 8 -25 23 -17 39 21 15 36 3 44 -14
10 l-11 -23 -7 23 c-3 12 -11 22 -16 22 -6 0 -7 -8 -3 -17z"/>
<path d="M8027 2083 c-11 -10 -8 -63 3 -63 6 0 10 16 10 35 0 36 -2 40 -13 28z"/>
<path d="M8061 2072 c-13 -24 4 -52 32 -51 l22 0 -22 9 c-13 5 -23 16 -23 25
0 9 10 20 23 25 l22 9 -22 0 c-12 1 -27 -7 -32 -17z"/>
<path d="M8124 2076 c-11 -28 1 -51 26 -53 l25 -3 -25 12 -25 12 28 4 c20 2
27 8 25 20 -4 22 -46 28 -54 8z m36 -6 c0 -5 -7 -10 -16 -10 -8 0 -12 5 -9 10
3 6 10 10 16 10 5 0 9 -4 9 -10z"/>
<path d="M8194 2078 c-4 -6 0 -16 9 -23 21 -15 22 -29 2 -21 -8 3 -15 1 -15
-4 0 -6 9 -10 20 -10 13 0 20 7 20 20 0 11 -4 20 -10 20 -5 0 -10 5 -10 11 0
5 5 7 10 4 6 -3 10 -1 10 4 0 15 -27 14 -36 -1z"/>
<path d="M8246 2024 c-4 -9 -4 -19 -1 -22 2 -3 7 3 11 12 4 9 4 19 1 22 -2 3
-7 -3 -11 -12z"/>
<path d="M7394 1933 c2 -10 7 -33 11 -50 4 -18 11 -33 16 -33 4 0 13 15 18 33
l9 32 7 -33 c4 -18 12 -31 18 -29 13 4 38 97 27 97 -5 0 -12 -15 -16 -32 l-7
-33 -10 33 c-6 17 -14 32 -18 32 -5 0 -13 -15 -18 -32 l-9 -33 -7 33 c-4 17
-12 32 -17 32 -5 0 -7 -8 -4 -17z"/>
<path d="M7580 1900 c0 -49 1 -50 30 -50 23 0 31 5 36 24 7 31 -1 46 -27 46
-10 0 -19 7 -19 15 0 8 -4 15 -10 15 -5 0 -10 -22 -10 -50z m46 -26 c-5 -13
-10 -14 -18 -6 -6 6 -8 18 -4 28 5 13 10 14 18 6 6 -6 8 -18 4 -28z"/>
<path d="M7690 1900 c0 -46 2 -50 24 -50 47 0 64 62 18 68 -12 2 -22 10 -22
18 0 8 -4 14 -10 14 -5 0 -10 -22 -10 -50z m46 -26 c-5 -13 -10 -14 -18 -6 -6
6 -8 18 -4 28 5 13 10 14 18 6 6 -6 8 -18 4 -28z"/>
<path d="M7514 1896 c-8 -32 2 -46 29 -45 17 1 18 2 5 6 -25 6 -22 23 3 23 28
0 21 34 -8 38 -17 3 -24 -3 -29 -22z m36 4 c0 -5 -4 -10 -10 -10 -5 0 -10 5
-10 10 0 6 5 10 10 10 6 0 10 -4 10 -10z"/>
<path d="M7770 1885 c0 -19 5 -35 10 -35 6 0 10 10 10 23 0 13 5 28 12 35 9 9
7 12 -10 12 -18 0 -22 -6 -22 -35z"/>
<path d="M7820 1906 c-27 -33 18 -72 48 -42 13 13 14 20 6 34 -15 23 -38 26
-54 8z m36 -32 c-5 -13 -10 -14 -18 -6 -6 6 -8 18 -4 28 5 13 10 14 18 6 6 -6
8 -18 4 -28z"/>
<path d="M7896 1893 c4 -16 9 -31 11 -35 7 -14 23 -9 23 7 0 8 5 15 10 15 6 0
10 -7 10 -15 0 -26 18 -16 29 16 13 39 13 39 1 39 -5 0 -10 -7 -10 -15 0 -8
-4 -15 -10 -15 -5 0 -10 7 -10 15 0 22 -15 18 -28 -7 l-11 -23 0 23 c-1 12 -6
22 -11 22 -6 0 -8 -11 -4 -27z"/>
<path d="M8000 1901 c0 -11 6 -22 13 -24 9 -4 8 -8 -3 -16 -13 -9 -13 -11 2
-11 25 0 34 21 15 35 -22 16 -21 22 1 28 13 4 11 5 -5 6 -16 1 -23 -5 -23 -18z"/>
<path d="M8054 1906 c-11 -28 1 -51 26 -53 l25 -3 -25 12 -25 12 28 4 c20 2
27 8 25 20 -4 22 -46 28 -54 8z m36 -6 c0 -5 -7 -10 -16 -10 -8 0 -12 5 -9 10
3 6 10 10 16 10 5 0 9 -4 9 -10z"/>
<path d="M8120 1883 c0 -18 5 -33 10 -33 6 0 10 10 10 23 0 13 5 28 11 34 9 9
7 12 -10 10 -17 -1 -21 -8 -21 -34z"/>
<path d="M8170 1901 c0 -11 6 -22 13 -24 9 -4 8 -8 -3 -16 -13 -9 -13 -11 2
-11 25 0 34 21 15 35 -22 16 -21 22 1 28 13 4 11 5 -5 6 -16 1 -23 -5 -23 -18z"/>
<path d="M8227 1863 c-4 -3 -7 -13 -7 -22 1 -13 3 -13 11 2 11 19 8 33 -4 20z"/>
<path d="M7374 1765 c-15 -23 -15 -27 0 -50 11 -17 25 -25 44 -24 27 1 27 1 3
8 -13 3 -29 14 -35 24 -14 22 2 49 35 58 24 7 24 7 -3 8 -19 1 -33 -7 -44 -24z"/>
<path d="M7450 1740 c0 -27 5 -50 10 -50 6 0 10 14 10 30 0 17 5 30 10 30 10
0 14 -13 11 -42 -1 -10 3 -18 8 -18 6 0 11 14 11 31 0 22 -5 32 -20 36 -11 3
-20 12 -20 19 0 8 -4 14 -10 14 -5 0 -10 -22 -10 -50z"/>
<path d="M7876 1743 c-16 -47 -13 -73 5 -40 12 21 39 23 39 2 0 -8 5 -15 10
-15 13 0 13 -2 -6 53 -9 26 -20 47 -24 47 -4 0 -15 -21 -24 -47z m34 -3 c0 -5
-4 -10 -10 -10 -5 0 -10 5 -10 10 0 6 5 10 10 10 6 0 10 -4 10 -10z"/>
<path d="M8205 1778 c-3 -7 -6 -29 -7 -48 -3 -34 -2 -35 32 -36 32 -2 35 1 37
28 l2 30 -20 -26 c-23 -30 -39 -34 -39 -10 0 10 6 14 15 10 19 -7 19 3 -1 25
-10 11 -12 19 -5 24 6 3 11 -1 11 -9 0 -9 5 -16 11 -16 6 0 9 8 7 17 -4 22
-36 30 -43 11z"/>
<path d="M4910 1770 c0 -6 -4 -9 -8 -6 -5 3 -9 -1 -9 -9 0 -8 6 -16 14 -19 10
-4 13 -55 13 -246 l0 -240 -276 0 c-306 0 -328 -4 -365 -64 -18 -29 -19 -59
-19 -516 0 -457 1 -487 19 -516 40 -65 30 -64 640 -64 609 0 603 -1 641 62 19
32 20 49 20 518 0 469 -1 486 -20 518 -36 58 -59 62 -360 62 l-270 0 2 243 c3
202 5 241 17 239 12 -3 12 1 -1 19 -17 26 -38 36 -38 19z m-340 -790 c0 -27
-4 -50 -10 -50 -5 0 -10 18 -10 40 0 22 -5 40 -11 40 -5 0 -7 5 -4 10 3 6 13
10 21 10 10 0 14 -13 14 -50z m160 0 c0 -27 -4 -50 -10 -50 -5 0 -10 23 -10
50 0 28 5 50 10 50 6 0 10 -22 10 -50z m110 40 c0 -5 -4 -10 -10 -10 -5 0 -10
5 -10 10 0 6 5 10 10 10 6 0 10 -4 10 -10z m80 0 c0 -5 -4 -10 -10 -10 -5 0
-10 5 -10 10 0 6 5 10 10 10 6 0 10 -4 10 -10z m100 -40 c0 -27 -4 -50 -10
-50 -5 0 -10 23 -10 50 0 28 5 50 10 50 6 0 10 -22 10 -50z m30 40 c0 -5 -4
-10 -10 -10 -5 0 -10 5 -10 10 0 6 5 10 10 10 6 0 10 -4 10 -10z m226 3 c-4
-5 -13 -8 -18 -8 -21 0 -19 -23 2 -30 32 -10 23 -49 -12 -53 -17 -2 -28 2 -28
8 0 7 7 10 15 7 25 -10 28 13 4 32 -29 23 -19 51 17 51 15 0 24 -3 20 -7z m88
-9 c15 -14 16 -14 16 0 0 9 5 16 10 16 6 0 10 -7 10 -17 0 -15 1 -15 18 0 26
24 35 21 17 -6 -13 -21 -13 -25 1 -46 22 -31 9 -39 -15 -10 l-20 24 -1 -22 c0
-13 -4 -23 -10 -23 -5 0 -10 7 -10 17 0 15 -1 15 -18 0 -10 -10 -31 -17 -45
-17 -26 0 -27 2 -27 50 0 49 1 50 29 50 16 0 37 -7 45 -16z m-488 -9 c9 -8 11
-15 5 -15 -15 0 -14 -33 2 -49 10 -10 8 -12 -8 -9 -13 2 -22 14 -26 33 l-7 30
-1 -32 c-1 -44 -21 -42 -21 2 0 24 5 35 15 35 8 0 15 5 15 10 0 14 9 12 26 -5z
m-72 -21 c9 -24 7 -54 -3 -54 -5 0 -11 11 -13 25 -4 35 -22 36 -26 3 -5 -40
-22 -34 -22 7 0 32 3 35 29 35 17 0 31 -6 35 -16z m116 -19 c0 -19 -4 -35 -10
-35 -5 0 -10 16 -10 35 0 19 5 35 10 35 6 0 10 -16 10 -35z m64 19 c14 -37 7
-54 -24 -54 -35 0 -43 29 -10 37 11 3 17 9 14 14 -3 5 -10 7 -15 4 -5 -4 -9
-1 -9 4 0 17 37 13 44 -5z m66 -19 c0 -19 -4 -35 -10 -35 -5 0 -10 16 -10 35
0 19 5 35 10 35 6 0 10 -16 10 -35z m56 10 c-20 -30 -20 -35 -2 -35 9 0 16 12
18 28 2 21 8 27 28 27 33 0 40 -32 8 -37 l-23 -5 25 -10 c21 -9 16 -11 -37
-11 -64 -1 -75 6 -48 28 20 16 19 27 -2 33 -10 3 -3 5 16 6 33 1 33 1 17 -24z
m-436 -11 c0 -2 -9 -4 -21 -4 -11 0 -18 4 -14 10 5 8 35 3 35 -6z m-240 -140
c35 20 41 6 8 -17 l-23 -16 23 0 c46 -2 20 -21 -28 -21 -27 0 -50 5 -50 10 0
6 8 10 18 10 16 1 16 1 0 14 -10 7 -18 19 -18 26 0 9 7 7 20 -5 20 -18 22 -18
50 -1z m18 -76 c7 -7 12 -25 12 -40 0 -27 -2 -28 -50 -28 -48 0 -50 1 -50 28
0 15 5 33 12 40 15 15 61 15 76 0z m139 -75 c4 -9 -1 -30 -10 -46 -15 -24 -15
-28 -3 -24 9 4 18 2 21 -3 4 -6 -10 -10 -30 -10 -38 0 -39 6 -7 42 18 22 9 50
-14 41 -12 -4 -15 -3 -10 5 11 18 46 14 53 -5z m179 -35 c2 -51 -9 -63 -21
-25 l-8 22 -4 -22 c-8 -42 -23 -24 -23 28 0 49 1 50 28 47 25 -3 27 -7 28 -50z
m184 42 c0 -5 -4 -10 -10 -10 -5 0 -10 5 -10 10 0 6 5 10 10 10 6 0 10 -4 10
-10z m320 -5 c0 -8 9 -15 19 -15 20 0 31 -18 31 -51 0 -29 -18 -22 -22 9 -4
34 -22 32 -26 -3 -3 -22 -8 -26 -30 -23 -21 2 -28 10 -33 35 -6 33 8 70 18 46
7 -18 23 -16 23 2 0 8 5 15 10 15 6 0 10 -7 10 -15z m-229 -2 c5 -53 2 -83 -7
-83 -12 0 -23 58 -16 79 4 12 22 15 23 4z m-597 -9 c18 -7 22 -54 5 -54 -6 0
-9 7 -6 15 10 25 -13 28 -32 4 -11 -14 -24 -20 -34 -16 -18 7 -24 47 -6 47 5
0 8 -4 4 -9 -12 -20 17 -22 31 -2 17 24 16 23 38 15z m394 -26 c2 -11 -5 -18
-20 -20 l-23 -5 25 -11 25 -12 -30 3 c-31 2 -43 23 -31 53 8 20 50 14 54 -8z
m82 -16 c0 -21 -5 -43 -12 -50 -15 -15 -48 -16 -48 -1 0 5 5 7 10 4 6 -3 16
-3 22 1 9 6 5 10 -12 14 -47 11 -39 70 10 70 28 0 30 -2 30 -38z m30 3 c0 -19
-4 -35 -10 -35 -5 0 -10 16 -10 35 0 19 5 35 10 35 6 0 10 -16 10 -35z m50 24
c0 -5 -4 -7 -10 -4 -17 10 -11 -7 7 -20 9 -7 13 -17 9 -23 -9 -15 -46 -16 -46
-1 0 5 4 8 9 4 5 -3 12 -1 15 4 3 5 -1 11 -9 15 -22 8 -18 36 5 36 11 0 20 -5
20 -11z m118 -1 c9 -9 12 -9 12 0 0 7 9 12 20 12 11 0 20 -4 20 -10 0 -5 -4
-10 -10 -10 -5 0 -10 -11 -10 -25 0 -14 -4 -25 -10 -25 -5 0 -10 7 -10 15 0 9
-10 15 -26 15 -15 0 -23 -4 -19 -11 4 -6 13 -8 21 -5 8 3 14 1 14 -5 0 -18
-55 -5 -58 14 -8 42 27 64 56 35z m270 0 c19 -19 14 -28 -14 -28 -15 0 -23 -4
-19 -11 4 -6 13 -8 21 -5 8 3 14 1 14 -5 0 -18 -55 -5 -58 14 -8 42 27 64 56
35z m-723 -18 c3 -5 -3 -10 -15 -10 -12 0 -18 5 -15 10 3 6 10 10 15 10 5 0
12 -4 15 -10z m265 -120 c0 -5 -4 -10 -10 -10 -5 0 -10 5 -10 10 0 6 5 10 10
10 6 0 10 -4 10 -10z m56 -5 c-17 -13 -18 -15 -3 -15 13 0 17 -9 17 -35 0 -41
-19 -48 -21 -7 l-2 27 -4 -27 c-6 -39 -20 -35 -25 7 -5 44 7 65 35 65 21 -1
22 -1 3 -15z m224 5 c0 -5 -4 -10 -10 -10 -5 0 -10 5 -10 10 0 6 5 10 10 10 6
0 10 -4 10 -10z m-319 -7 c5 -53 2 -83 -7 -83 -13 0 -24 57 -17 78 6 13 23 17
24 5z m279 -3 c0 -5 9 -10 20 -10 16 0 20 -7 20 -35 0 -19 -4 -35 -10 -35 -5
0 -10 14 -10 30 0 17 -5 30 -11 30 -7 0 -10 -12 -7 -30 3 -19 0 -30 -8 -30
-12 0 -23 57 -16 79 5 14 22 15 22 1z m-402 -47 c2 -19 -1 -33 -7 -33 -6 0
-11 11 -11 25 0 14 -4 25 -10 25 -5 0 -10 -11 -10 -25 0 -14 -4 -25 -10 -25
-5 0 -10 16 -10 36 0 33 2 35 28 32 22 -2 28 -8 30 -35z m83 21 c17 -21 0 -49
-31 -49 -31 0 -48 28 -31 49 8 9 21 16 31 16 10 0 23 -7 31 -16z m79 -19 c0
-19 -4 -35 -10 -35 -5 0 -10 16 -10 35 0 19 5 35 10 35 6 0 10 -16 10 -35z
m140 25 c0 -5 -3 -9 -7 -9 -21 3 -33 -2 -33 -15 0 -20 27 -27 40 -10 7 8 19
14 26 14 8 0 14 5 14 11 0 6 -7 9 -15 5 -8 -3 -15 -1 -15 5 0 6 10 9 23 7 17
-2 23 -11 25 -35 l3 -32 -50 1 c-58 0 -78 16 -61 47 11 21 50 29 50 11z m218
-2 c9 -9 12 -9 12 0 0 7 13 12 29 12 29 0 41 -14 41 -51 0 -28 -18 -23 -22 6
-4 33 -22 33 -26 0 -3 -24 -22 -37 -22 -15 0 6 -7 6 -19 -1 -35 -23 -77 15
-51 46 15 18 42 19 58 3z m-318 -128 c0 -5 -4 -10 -10 -10 -5 0 -10 5 -10 10
0 6 5 10 10 10 6 0 10 -4 10 -10z m-220 -31 c0 -5 -4 -7 -10 -4 -17 10 -11 -7
7 -20 9 -7 13 -17 9 -23 -9 -15 -46 -16 -46 -2 0 6 3 9 8 9 21 -4 24 2 7 14
-10 8 -15 19 -11 25 9 15 36 16 36 1z m68 -1 c19 -19 14 -28 -14 -28 -15 0
-23 -4 -19 -11 4 -6 13 -8 21 -5 8 3 14 1 14 -4 0 -17 -38 -11 -49 7 -19 35
19 69 47 41z m88 -10 l7 -23 8 23 c5 13 17 22 29 22 16 0 20 -6 20 -35 0 -44
-20 -47 -21 -2 l-1 32 -14 -32 c-18 -41 -29 -42 -43 -2 -12 34 -31 31 -31 -7
0 -13 -4 -24 -10 -24 -5 0 -10 16 -10 35 0 32 2 35 29 35 22 0 32 -6 37 -22z
m116 10 c-23 -11 -27 -43 -5 -43 6 0 15 -4 20 -8 4 -5 -5 -7 -22 -5 -50 5 -48
69 2 67 28 0 28 0 5 -11z m76 0 c19 -19 14 -28 -15 -28 -21 0 -24 -3 -13 -9 8
-6 18 -7 22 -5 4 3 8 0 8 -5 0 -16 -36 -13 -49 3 -9 11 -10 20 -1 35 12 24 30
27 48 9z"/>
<path d="M5310 987 c0 -41 7 -49 31 -36 25 13 24 45 0 59 -29 15 -31 13 -31
-23z"/>
<path d="M4950 949 c0 -5 5 -7 10 -4 6 3 10 8 10 11 0 2 -4 4 -10 4 -5 0 -10
-5 -10 -11z"/>
<path d="M5140 980 c0 -5 5 -10 10 -10 6 0 10 5 10 10 0 6 -4 10 -10 10 -5 0
-10 -4 -10 -10z"/>
<path d="M4376 724 c-9 -24 -9 -24 27 -24 40 0 51 8 36 27 -16 18 -56 16 -63
-3z"/>
<path d="M4730 660 c0 -19 3 -21 12 -12 9 9 9 15 0 24 -9 9 -12 7 -12 -12z"/>
<path d="M5230 631 c0 -11 5 -23 10 -26 6 -4 10 5 10 19 0 14 -4 26 -10 26 -5
0 -10 -9 -10 -19z"/>
<path d="M4805 640 c-3 -5 -1 -10 4 -10 6 0 11 5 11 10 0 6 -2 10 -4 10 -3 0
-8 -4 -11 -10z"/>
<path d="M4877 644 c-11 -11 -8 -44 3 -44 15 0 24 30 13 41 -5 5 -12 6 -16 3z"/>
<path d="M5080 640 c0 -5 7 -10 16 -10 8 0 12 5 9 10 -3 6 -10 10 -16 10 -5 0
-9 -4 -9 -10z"/>
<path d="M5355 640 c-3 -5 1 -10 10 -10 9 0 13 5 10 10 -3 6 -8 10 -10 10 -2
0 -7 -4 -10 -10z"/>
<path d="M4811 471 c-15 -10 -8 -41 9 -41 15 0 25 29 14 40 -5 5 -15 5 -23 1z"/>
<path d="M5243 464 c-7 -18 17 -38 31 -24 11 11 1 40 -14 40 -6 0 -13 -7 -17
-16z"/>
<path d="M4790 310 c0 -5 5 -10 11 -10 5 0 7 5 4 10 -3 6 -8 10 -11 10 -2 0
-4 -4 -4 -10z"/>
<path d="M5065 310 c-3 -5 1 -10 10 -10 9 0 13 5 10 10 -3 6 -8 10 -10 10 -2
0 -7 -4 -10 -10z"/>
<path d="M7530 1723 c0 -18 5 -33 10 -33 6 0 10 11 10 24 0 14 5 28 11 32 7 4
10 1 7 -7 -14 -39 41 -67 61 -32 18 32 -4 53 -54 50 -44 -2 -45 -3 -45 -34z
m87 11 c8 -21 -13 -42 -28 -27 -13 13 -5 43 11 43 6 0 13 -7 17 -16z"/>
<path d="M7650 1725 c0 -19 5 -35 10 -35 6 0 10 14 10 31 0 17 4 28 10 24 6
-3 10 -17 10 -31 0 -13 5 -24 10 -24 6 0 10 14 10 30 0 35 19 41 21 8 1 -13 1
-26 0 -30 0 -5 4 -8 10 -8 6 0 9 14 7 33 -3 31 -5 32 -50 34 l-48 2 0 -34z"/>
<path d="M7770 1745 c-20 -24 -8 -50 25 -52 l30 -3 -25 12 -25 12 27 4 c24 3
27 6 18 23 -13 23 -33 25 -50 4z m35 -5 c3 -5 -1 -10 -9 -10 -9 0 -16 5 -16
10 0 6 4 10 9 10 6 0 13 -4 16 -10z"/>
<path d="M7950 1710 c0 -27 5 -50 10 -50 6 0 10 7 10 15 0 8 9 15 20 15 12 0
22 9 26 24 8 34 -2 46 -37 46 -28 0 -29 -1 -29 -50z m47 6 c-4 -9 -11 -16 -17
-16 -11 0 -14 33 -3 44 11 10 26 -11 20 -28z"/>
<path d="M8030 1708 c0 -26 5 -48 10 -48 6 0 10 7 10 15 0 8 9 15 20 15 12 0
22 9 26 24 8 34 -2 47 -37 44 -28 -2 -29 -4 -29 -50z m47 8 c-4 -9 -11 -16
-17 -16 -11 0 -14 33 -3 44 11 10 26 -11 20 -28z"/>
<path d="M8114 1748 c-4 -6 0 -16 9 -23 21 -15 22 -29 2 -21 -8 3 -15 1 -15
-4 0 -6 9 -10 20 -10 13 0 20 7 20 20 0 11 -4 20 -10 20 -5 0 -10 5 -10 11 0
5 5 7 10 4 6 -3 10 -1 10 4 0 15 -27 14 -36 -1z"/>
<path d="M7510 1570 l0 -50 39 0 c22 0 43 5 46 10 5 8 11 7 21 -1 16 -13 19 2
3 18 -8 8 -8 13 0 17 6 4 11 12 11 18 0 7 -5 6 -14 -1 -10 -8 -16 -9 -21 -1
-3 5 -11 10 -17 10 -7 0 -6 -5 2 -15 18 -21 5 -45 -25 -45 -29 0 -35 26 -7 33
16 4 16 5 0 6 -11 1 -18 9 -18 20 0 11 8 22 18 24 10 3 6 5 -10 6 -27 1 -28
-1 -28 -49z"/>
<path d="M7895 1610 c3 -5 8 -10 11 -10 2 0 4 5 4 10 0 6 -5 10 -11 10 -5 0
-7 -4 -4 -10z"/>
<path d="M7648 1598 c-7 -21 6 -71 20 -76 9 -3 10 2 2 22 -5 15 -6 28 0 31 10
6 2 35 -10 35 -4 0 -10 -6 -12 -12z"/>
<path d="M7694 1576 c-11 -28 1 -51 26 -53 l25 -3 -25 12 -25 12 28 4 c20 2
27 8 25 20 -4 22 -46 28 -54 8z m36 -6 c0 -5 -7 -10 -16 -10 -8 0 -12 5 -9 10
3 6 10 10 16 10 5 0 9 -4 9 -10z"/>
<path d="M7760 1556 c0 -20 5 -36 10 -36 6 0 10 14 10 30 0 17 5 30 10 30 6 0
10 -13 10 -30 0 -16 5 -30 11 -30 6 0 9 14 7 33 -2 27 -8 33 -30 35 -26 3 -28
1 -28 -32z"/>
<path d="M7840 1571 c0 -11 6 -22 13 -24 9 -4 8 -8 -3 -16 -13 -9 -13 -11 2
-11 26 0 33 21 12 37 -16 12 -17 15 -4 23 13 8 12 10 -2 10 -11 0 -18 -8 -18
-19z"/>
<path d="M7890 1555 c0 -19 5 -35 10 -35 6 0 10 16 10 35 0 19 -4 35 -10 35
-5 0 -10 -16 -10 -35z"/>
<path d="M7931 1572 c-21 -39 36 -73 58 -34 10 16 10 16 11 0 0 -28 18 -21 22
7 4 36 22 36 29 0 5 -26 7 -27 14 -11 11 26 -6 50 -39 54 -20 3 -26 -1 -26
-15 -1 -17 -1 -17 -11 0 -13 22 -46 22 -58 -1z m46 -8 c8 -21 -13 -42 -28 -27
-13 13 -5 43 11 43 6 0 13 -7 17 -16z"/>
<path d="M8084 1578 c-4 -6 0 -16 9 -23 21 -15 22 -29 2 -21 -8 3 -15 1 -15
-4 0 -6 7 -10 15 -10 19 0 33 32 17 38 -7 2 -12 8 -12 13 0 6 5 7 10 4 6 -3
10 -1 10 4 0 15 -27 14 -36 -1z"/>
</g>
</svg>
